<svg xmlns="http://www.w3.org/2000/svg" version="1.1" xmlns:xlink="http://www.w3.org/1999/xlink" xmlns:svgjs="http://svgjs.com/svgjs" width="30" height="30"><svg viewBox="0 -5 30 30" fill="none" xmlns="http://www.w3.org/2000/svg">
<path d="M0 15.24C0.368 15.224 0.672 15.176 0.912 15.096C1.168 15.016 1.36 14.832 1.488 14.544C1.632 14.256 1.704 13.792 1.704 13.152V3.96C1.704 3.528 1.712 3.112 1.728 2.712C1.76 2.312 1.784 2.008 1.8 1.8C1.544 1.816 1.224 1.832 0.84 1.848C0.456 1.848 0.176 1.856 0 1.872V0.0239997L6.984 0C8.568 0 9.936 0.24 11.088 0.720001C12.256 1.184 13.208 1.816 13.944 2.616C14.696 3.416 15.256 4.312 15.624 5.304C15.992 6.28 16.176 7.264 16.176 8.256C16.176 9.232 16 10.224 15.648 11.232C15.312 12.24 14.776 13.168 14.04 14.016C13.304 14.848 12.344 15.528 11.16 16.056C9.976 16.568 8.544 16.824 6.864 16.824H0V15.24ZM5.184 12.888C5.184 13.32 5.176 13.736 5.16 14.136C5.144 14.536 5.12 14.84 5.088 15.048C5.248 15.032 5.464 15.032 5.736 15.048C6.024 15.048 6.32 15.056 6.624 15.072C6.928 15.072 7.176 15.072 7.368 15.072C8.248 15.072 9 14.896 9.624 14.544C10.264 14.192 10.784 13.72 11.184 13.128C11.6 12.52 11.904 11.84 12.096 11.088C12.288 10.336 12.384 9.56 12.384 8.76C12.384 7.128 12.16 5.792 11.712 4.752C11.264 3.712 10.632 2.936 9.816 2.424C9.016 1.912 8.056 1.64 6.936 1.608C6.552 1.592 6.224 1.632 5.952 1.728C5.696 1.808 5.504 1.992 5.376 2.28C5.248 2.568 5.184 3.024 5.184 3.648V12.888Z" fill="black"></path>
<path d="M23.8749 17.208C22.7229 17.208 21.6829 16.96 20.7549 16.464C19.8269 15.968 19.0909 15.264 18.5469 14.352C18.0189 13.424 17.7549 12.336 17.7549 11.088C17.7549 9.76 18.0269 8.6 18.5709 7.608C19.1309 6.6 19.8669 5.824 20.7789 5.28C21.7069 4.72 22.7149 4.44 23.8029 4.44C24.9549 4.44 25.9869 4.688 26.8989 5.184C27.8109 5.68 28.5309 6.392 29.0589 7.32C29.5869 8.232 29.8509 9.328 29.8509 10.608C29.8509 11.952 29.5949 13.12 29.0829 14.112C28.5709 15.104 27.8669 15.872 26.9709 16.416C26.0749 16.944 25.0429 17.208 23.8749 17.208ZM23.9709 15.504C24.6109 15.488 25.0909 15.264 25.4109 14.832C25.7469 14.4 25.9789 13.856 26.1069 13.2C26.2349 12.544 26.2989 11.88 26.2989 11.208C26.2989 10.616 26.2509 10.016 26.1549 9.408C26.0749 8.8 25.9389 8.248 25.7469 7.752C25.5549 7.256 25.2909 6.856 24.9549 6.552C24.6349 6.248 24.2349 6.104 23.7549 6.12C23.1309 6.136 22.6349 6.36 22.2669 6.792C21.9149 7.224 21.6589 7.768 21.4989 8.424C21.3549 9.064 21.2829 9.736 21.2829 10.44C21.2829 11.256 21.3709 12.056 21.5469 12.84C21.7229 13.624 22.0029 14.272 22.3869 14.784C22.7869 15.28 23.3149 15.52 23.9709 15.504Z" fill="black"></path>
</svg><style>@media (prefers-color-scheme: light) { :root { filter: contrast(1) brightness(0.7); } }
@media (prefers-color-scheme: dark) { :root { filter: invert(100%); } }
</style></svg>